# xmcd
#
# Track frame offsets: 
#        150
#        18435
#        44670
#        66927
#        84832
#        105470
#        128860
#        151937
#        170955
#
# Disc length: 2589 seconds
#
# Revision: 0
# Processed by: cddbd v1.5.1PL0 Copyright (c) Steve Scherf et al.
# Submitted via: ExactAudioCopy v0.95a5
#
DISCID=720a1b09
DTITLE=Joey Gilmore - Can't Kill Nothin'
DYEAR=1993
DGENRE=Blues
TTITLE0=Can't Kill Nothin'
TTITLE1=Breaking Up Somebody's Home
TTITLE2=I Don't Have To See Blood
TTITLE3=Still Called The Blues
TTITLE4=Born Under A Bad Sign
TTITLE5=A Real Mother For Ya
TTITLE6=Someone Else Is Steppin' In
TTITLE7=A Lady In The Streets
TTITLE8=Blues House Party
EXTD=Joey Gilmore: Lead Guitar and Vocal\nT.K Lively: Drums\nJosh Willia
EXTD=ms: Bass\nReginald " Wizard " Jones: Keyboard, Organ\nTheodis Eal
EXTD=ey: Rythm Guitar\nBuzz Amato: Keyboard\nMatt Greeley: Percussion\n
EXTD=\nIchiban Records, Atlanta
EXTT0=
EXTT1=
EXTT2=
EXTT3=
EXTT4=
EXTT5=
EXTT6=
EXTT7=
EXTT8=
PLAYORDER=
